<?xml version="1.0" encoding="utf-8"?>
<!-- Generator: Adobe Illustrator 22.1.0, SVG Export Plug-In . SVG Version: 6.00 Build 0)  -->
<svg version="1.1" id="Layer_1" xmlns="http://www.w3.org/2000/svg" xmlns:xlink="http://www.w3.org/1999/xlink" x="0px" y="0px"
	 viewBox="0 0 256 256" style="enable-background:new 0 0 256 256;" xml:space="preserve">
<style type="text/css">
	.st0{display:none;fill:none;stroke:#000000;stroke-miterlimit:10;}
	.st1{fill:#FFFFFF;}
</style>
<path class="st0" d="M202.6,171.8l0,0.3l0,0.3l0,0.3l0,0.3l0,0.3l0,0.3l0,0.3l0,0.3l0,0.3l0,0.3l0,0.3v0.3l0,0.3l0,0.3l0,0.3l0,0.3
	l0,0.3l0,0.3l0,0.3l0,0.3l0,0.3l0,0.3l0,0.3l0,0.3l0,0.3l0,0.3l0,0.3l0,0.3l0,0.3l0,0.3l0,0.3l0,0.3l0,0.3l0,0.3l0,0.3l0,0.3l0,0.3
	l0,0.3l0,0.3l0,0.3l0,0.3l0,0.3l0,0.3l0,0.3l0,0.3l0,0.3l0,0.3l0,0.3l0,0.3l0,0.3l0,0.3l0,0.3l0,0.3l0,0.3l0,0.3l0,0.3l0,0.3l0,0.3
	l0,0.3l0,0.3l0,0.3l0,0.3l0,0.3l0,0.3l0,0.1l0,0.1l0,0.1l0,0.1l0,0.1l0,0.1l0,0.1l0,0.1l0,0.1l0,0.1l0,0.1l0,0.1l0,0.1l0,0.1l0,0.1
	l0,0.1l0,0.1l0,0.1l0,0.1l0,0.1l0,0.1l0,0.1l0,0.1l0,0.1l0,0.1l0,0.1l0,0.1l0,0.1l0,0.1l0,0.1l0,0.1l0,0.1l0,0.1l0,0.1l0,0.1l0,0.1
	l0,0.1l0,0.1l0,0.1l0,0.1l0,0.1l0,0.1l0,0.1l0,0.1l0,0.1l0,0.1l0,0.1l0,0.1l0,0.1l0,0.1l0,0.1l0,0.1l0,0.1l0,0.1l0,0.1l0,0.1l0,0.1
	l0,0.1l0,0.1l0,0.1l0,0.1l0,0.1l0,0.1l0,0.1l0,0.2l0,0.2l0,0.2l0,0.2v0.2l0,0.2l0,0.2l0,0.2l0,0.2l0,0.2l0,0.2l0,0.2l0,0.2l0,0.2
	l0,0.2l0,0.2l0,0.2l0,0.2l0,0.2l0,0.2l0,0.2l0,0.2l0,0.2l0,0.2l0,0.2l0,0.2l0,0.2l0,0.2l0,0.2l0,0.2l0,0.2l0,0.2l0,0.2l0,0.2
	l0.1,0.2l0.1,0.2l0,0.2l0.1,0.2l0.1,0.2l0.1,0.2l0.1,0.2l0.1,0.2l0.1,0.2l0.1,0.2l0.1,0.2l0,0.2l0.1,0.2l0,0.2l0,0.2l0,0.2l0,0.2
	l0,0.2l0,0.2l0,0.2l0,0.2l0,0.2l0,0.2l0,0.2l0,0.2l0,0.2l0,0.2l0,0.2l0,0.2l0,0.2l0,0.2l0,0.2l0,0.2l0,0.2l0,0.2l0,0.2l0,0.2l0,0.2
	l0,0.2l0,0.2l0,0.2l0,0.2l0,0.2l0,0.2l0,0.2v0.2l0,0.2l0,0.2l0,0.2l0,0.2l0,0.2l0,0.2l0,0.2l0,0.2l0,0.2l0,0.2l0,0.2l0,0.2l0,0.2
	l0,0.2l0,0.2l0,0.2l0,0.2l0,0.2l0,0.2l0,0.2l0,0.2l0,0.2l0,0.2l0,0.2l0,0.2l0,0.2l0,0.2l0,0.2l0,0.2l0,0.2l0,0.2l0,0.2l0,0.2l0,0.2
	l0,0.2l0,0.2l0,0.2l0,0.2l0,0.2l0,0.2l0,0.2l0,0.2l0,0.2l0,0.2l0,0.2l0,0.2l0,0.2l0,0.2l0,0v0l0,0l0,0l0,0l0,0l0,0l0,0l0,0l0,0l0,0
	l0,0l0,0v0l0,0l0,0l0,0l0,0v0l0,0l0,0v0l0,0l0,0l0,0l0,0v0l0,0l0,0v0l0,0l0,0l0,0l0,0v0l0,0l0,0v0l0,0l0,0l0,0l0,0l0,0l0,0l0,0l0,0
	v0l0,0l0,0v0l0,0l0,0l0,0l0,0l0,0l0,0l0,0l0,0l0,0l0,0l0,0v0l0,0l0,0l0,0l0,0l0,0l0,0l0,0l0,0l0,0l0,0l0,0l0,0l0,0l0,0l0,0l0,0l0,0
	l0,0l0,0l0,0l0,0l0,0l0,0l0,0l0,0l0,0l0,0l0,0l0,0l0,0l0,0l0,0l0,0l0,0l0,0l0,0l0,0l0,0l0,0l0,0l0,0l0,0l0,0l0,0l0,0l0,0l0,0l0,0
	l0,0l0,0l0,0l0,0l0,0l0,0l0,0l0,0l0,0l0,0l0,0l0,0l0,0l0,0l0,0l0,0l0,0l0,0h0l0,0l0,0l0,0h0l0,0l0,0h0l0,0l0,0l0,0h0h0l0,0l0,0l0,0
	h0l0,0l0,0h0h0l0,0l0,0l0,0h0l0,0l0,0h0h0l0,0h0l0,0l0,0h0h0l0,0h0l0,0l0,0h0h0l0,0l0,0h0l0,0h0h0l0,0h0h0h0h0l0,0l0,0h0h0l0,0h0h0
	l0,0h0h0h0h0l-1.7,0l-1.7,0l-1.7,0l-1.7,0l-1.7,0l-1.7,0l-1.7,0l-1.7,0l-1.7,0l-1.7,0l-1.7,0l-1.7,0l-1.7,0l-1.7,0l-1.7,0l-1.7,0
	l-1.7,0l-1.7,0l-1.7,0l-1.7,0l-1.7,0l-1.7,0l-1.7,0l-1.7,0l-1.7,0l-1.7,0l-1.7,0l-1.7,0l-1.7,0l-1.7,0l-1.7,0l-1.7,0l-1.7,0l-1.7,0
	l-1.7,0l-1.7,0l-1.7,0l-1.7,0l-1.7,0l-1.7,0l-1.7,0l-1.7,0l-1.7,0l-1.7,0l-1.7,0l-1.7,0l-1.7,0l-1.7,0l-1.7,0l-1.7,0l-1.7,0l-1.7,0
	l-1.7,0l-1.7,0l-1.7,0l-1.7,0l-1.7,0l-1.7,0l-1.7,0l-1.7,0l-1.7,0l-1.8,0l-1.7,0l-1.7,0h0l0,0l0,0l0,0l0,0l0,0l0,0l0,0l0,0l0,0l0,0
	l0,0l0,0l0,0l0,0l0,0l0,0l0,0l0,0l0,0l0,0l0,0l0,0l0,0l0,0l0,0l0,0l0,0l0,0l0,0l0,0l0,0l0,0l0,0l0,0l0,0l0,0l0,0l0,0l0,0l0,0l0,0
	l0,0l0,0l0,0l0,0l0,0l0,0l0,0l0,0l0,0l0,0l0,0l0,0l0,0l0,0l0,0l0,0l0,0l0,0l0,0l0,0l0,0l0,0l-0.1,0.3l-0.1,0.4l-0.1,0.4l-0.1,0.4
	l-0.1,0.4l-0.1,0.4l-0.1,0.4l-0.1,0.4l-0.1,0.4l0,0.4l0,0.4l0,0.4l0,0.4l0,0.4l0,0.4l0,0.4l0,0.4l0,0.4l0,0.4l0,0.4l0,0.4l0,0.4
	l0,0.4l0.1,0.4l0.1,0.4l0.1,0.4l0.1,0.4l0.1,0.4l0.1,0.4l0.1,0.4l0.1,0.4L89,236l0.1,0.4l0.1,0.4l0.1,0.4l0.1,0.4l0.1,0.4l0.1,0.4
	l0.1,0.4l0.1,0.4l0.1,0.4l0.1,0.4l0.1,0.4l0.1,0.4l0.1,0.4l0.1,0.4l0.1,0.4l0.1,0.4l0.1,0.4l0.1,0.4l0.1,0.4l0,0.4l0,0.4l0,0.4
	l0,0.4l0,0.4l0,0.4l0,0.4l0,0.4l0,0.4l0,0.4l0,0.4l0,0.4l0,0.4l-0.1,0l-0.1,0l-0.2,0l-0.2,0l-0.2,0l-0.2,0l-0.2,0l-0.2,0l-0.2,0
	l-0.2,0l-0.2,0l-0.2,0l-0.2,0l-0.2,0l-0.2,0l-0.2,0l-0.2,0l-0.2,0l-0.2,0l-0.2,0l-0.2,0l-0.2,0l-0.3,0l-0.3,0l-0.3,0.1l-0.3,0.1
	l-0.3,0.1l-0.3,0.1l-0.3,0.1l-0.3,0.1l-0.3,0.1l-0.3,0.1l-0.3,0.1L83,250l-0.3,0.1l-0.3,0.1l-0.3,0.1l-0.3,0.1l-0.3,0.1l-0.3,0.1
	l-0.3,0.1l-0.3,0.1l-0.3,0.1l-0.3,0.1l-0.3,0.1l-0.3,0.1l-0.3,0.1l-0.3,0.1l-0.3,0.1l-0.3,0.1l-0.3,0.1l-0.3,0.1l-0.3,0.1l-0.3,0.1
	l-0.3,0.1l-0.3,0.1l-0.3,0.1l-0.2,0.1l-0.2,0.1l-0.2,0.1l-0.2,0.1l-0.2,0.1l-0.2,0.1l-0.2,0.1l0,0l0,0l0,0l0,0l0,0l0,0l0,0l0,0l0,0
	l0,0l0,0l0,0l0,0l0,0l0,0l0,0l0,0l0,0l0,0l0,0l0,0l0,0l0,0l0,0l0,0l0,0l0,0l0,0l0,0l0,0l0,0l0,0l0,0l0,0l0,0l0,0l0,0l0,0l0,0l0,0
	l0,0h0h0l0,0h0l0,0l0,0l0,0l0,0l0,0l0,0l0,0l0,0l0,0l0,0l0,0l0,0l0,0l0,0l0,0l0,0l0,0l0,0l0,0l-0.2-0.1L72,252l-0.2-0.1l-0.2-0.1
	l-0.2-0.1l-0.1-0.1l-0.1-0.1l-0.1-0.1l-0.1-0.1L71,251l-0.1-0.2l-0.1-0.2l-0.1-0.2l-0.1-0.2l0-0.2l0-0.2l0-0.2l0-0.2l0-0.2l0-0.2
	l0-0.2l0-0.2l0-0.2l0-0.2l0-0.2l0-0.2l0-0.2l0-0.2l0-0.2l0-0.2l0-0.2l0-0.2l0-0.2l0-0.2l0-0.2l0-0.2l0.1-0.2l0.1-0.2l0.1-0.2
	l0.1-0.2l0.1-0.2l0.1-0.2l0-0.2l0-0.2l0-0.2l0-0.2l0-0.2l0-0.2l0-0.2l0-0.2l0-0.2l0-0.2l0-0.2l0-0.2l0-0.2l0-0.2l0-0.2l0-0.2l0-0.2
	l0-0.2l0-0.2l0-0.2l0-0.2l-0.1-0.2l0-0.1l0-0.1l0-0.1l0-0.1l0-0.1l0-0.1l0-0.1l-0.1-0.1l-0.1-0.1l-0.1-0.1l-0.1-0.1l-0.1-0.1
	l-0.1-0.1l-0.1-0.1l-0.1-0.1l-0.1-0.1l-0.1-0.1l-0.1-0.1l-0.1-0.1l-0.1-0.1l-0.1-0.1l-0.1-0.1l-0.1-0.1l-0.1-0.1l-0.1-0.1l-0.1-0.1
	l-0.1-0.1l-0.1-0.1l-0.1-0.1l-0.1-0.1l-0.1-0.1l-0.1-0.1l-0.1-0.1l-0.1-0.1l-0.1-0.1l-0.1-0.1l-0.1-0.1l-0.1-0.1l-0.1-0.1l-0.1-0.1
	l-0.1-0.1l-0.1-0.1l-0.1-0.1l-0.1-0.1l-0.1-0.1l-0.1-0.1l-0.1-0.1l-0.1-0.1l-0.1-0.1l-0.1-0.1l-0.2-0.1l-0.2-0.1l-0.2,0l-0.2,0
	l-0.2,0l-0.2,0l-0.2,0l-0.2,0l-0.2,0l-0.2,0l-0.2,0l-0.2,0l-0.2,0l-0.2,0h0l0,0h0l0,0l0,0l0,0l0,0l0,0l0,0l0,0l0,0l0,0l0,0l0,0l0,0
	l0,0l0,0l0,0l0,0l0,0l0,0l0,0l0,0l0,0l0,0l0,0l0,0l0,0l0,0l0,0l0,0l0,0l0,0l0,0l0,0l0,0l0,0l0,0l0,0l0,0l0,0l0,0l0,0l0,0l0,0l0,0
	l0,0l0,0l0,0l0,0l0,0l0,0l0,0l0,0l0,0l0,0l0,0l0,0l0,0l0,0l0,0l0,0l0,0l0,0l-0.1,0.1l-0.1,0.1l-0.1,0.1l-0.1,0.1l-0.1,0.1l-0.1,0.1
	l-0.1,0.1l-0.1,0.2l-0.1,0.2l-0.1,0.2l-0.1,0.2l-0.1,0.2l-0.1,0.2l-0.1,0.2l-0.1,0.2l-0.1,0.2L61,237l0,0.2l0,0.2l0,0.2l0,0.2l0,0.2
	l0,0.2l0,0.2l0,0.2l0,0.2l0,0.2l0,0.2l0,0.2l0,0.2l0,0.2l0,0.2l0,0.2l0,0.2l0,0.2l0,0.2l0,0.2l0,0.2l0,0.2l0,0.2l0,0.2l0,0.2l0,0.2
	l0,0.2l0,0.2l0,0.2l0,0.2l0,0.2l0,0.2l0,0.2l0,0.2l0,0.2l0,0.2l0,0.2l0,0.2l0,0.2l0,0.2l0,0.2l0,0.2l0,0.2l0,0.2l0,0.2l0,0.2l0,0.2
	l0,0.1l0,0.1l0,0.1l0,0.1l0,0.1l0,0.1l0,0.1l0,0.1l0,0.1l0,0.1l0,0.1l0,0.1l0,0.1l0,0.1l0,0.1l0,0.1l0,0.1l0,0.1l0,0.1l0,0.1l0,0.1
	l0,0.1l0,0.1l0,0.1l0,0.1l0,0.1l0,0.1l0,0.1l0,0.1l0,0.1l0,0.1l0,0.1l0,0.1l0,0.1l0,0.1l0,0.1l0,0.1l0,0.1l0,0.1l0,0.1l0,0.1l0,0.1
	l0,0.1l0,0.1l0,0.1l0,0.1l0,0.1l0,0.1l0,0.1l0,0.1l0,0.1l0,0.1l-0.1,0.1l-0.1,0.1l-0.1,0.1l-0.1,0.1l-0.1,0.1l-0.1,0.1l-0.1,0.1
	l-0.1,0.1l-0.1,0.1l-0.1,0.1l-0.1,0.1l-0.1,0.1l-0.1,0.1l-0.1,0.1l-0.1,0.1l-0.1,0.1l-0.1,0.1l-0.1,0.1l-0.1,0.1l-0.1,0.1l-0.1,0.1
	l-0.1,0.1l-0.1,0.1l-0.1,0.1l-0.2,0.1l-0.2,0.1l-0.2,0.1l-0.2,0.1l-0.2,0.1l-0.2,0.1l-0.2,0.1l-0.2,0.1l-0.2,0.1l-0.2,0l-0.2,0
	l-0.2,0l-0.2,0l-0.2,0l-0.2,0l-0.2,0l-0.2,0l-0.2,0l-0.2,0l-0.2,0l-0.2,0l-0.2,0l-0.2,0l-0.2,0l-0.2,0l-0.2,0l-0.2,0l-0.2,0h-0.2
	l-0.2,0l-0.2,0l-0.2,0l-0.2,0l-0.2,0l-0.2,0l-0.2,0l-0.2,0l-0.2,0l-0.2,0l-0.2,0l-0.2,0l-0.2,0l-0.2,0l-0.2,0l-0.2,0l-0.2,0l-0.2,0
	l-0.2,0l-0.2,0l-0.2,0l-0.2,0l-0.2,0l0,0l0,0h0l0,0l0,0l0,0h0l0,0l0,0l0,0h0l0,0l0,0l0,0h0l0,0l0,0l0,0h0l0,0l0,0h0l0,0l0,0l0,0l0,0
	h0l0,0l0,0l0,0h0l0,0l0,0l0,0h0l0,0l0,0h0l0,0l0,0l0,0l0,0h0l0,0l0,0l0,0l0,0l0,0l0,0l0,0l0,0l0,0l0,0h0l0,0l0,0l0,0l0,0l0,0l0,0
	l0,0l0,0l0,0l0,0l0-0.8l0-0.8l0-0.8l0-0.8l0-0.8l0-0.8l0-0.8l0-0.8l0-0.8l0-0.8l0-0.8l0-0.8l0-0.8l0-0.8l0-0.8l0-0.8l0-0.8l0-0.8
	l0-0.8l0-0.8l0-0.8l0-0.8l0-0.8l0-0.8l0-0.8l0-0.8l0-0.8l0-0.8l0-0.8l0-0.8l0-0.8l0-0.8l0-0.8l0-0.8l0-0.8l0-0.8l0-0.8l0-0.8l0-0.8
	l0-0.8l0-0.8l0-0.8l0-0.8l0-0.8l0-0.8l0-0.8l0-0.8l0-0.8l0-0.8l0-0.8l0-0.8l0-0.8l0-0.8l0-0.8l0-0.8l0-0.8l0-0.8l0-0.8l0-0.8l0-0.8
	l0-0.8l0-0.8l0-0.8l0-0.8l0-0.2l0-0.3l0-0.3l0-0.3l0-0.3l0-0.3l0-0.3l0-0.3l0-0.3l0-0.3l0-0.4l0-0.4l0-0.4l0-0.4l0-0.4l0-0.4l0-0.4
	l0-0.4l0-0.4l0-0.4l0-0.4l0-0.4l0-0.4l0-0.4l0-0.4l0-0.5l0-0.5l0-0.5l0-0.5l0-0.5l0-0.5l0-0.5l0-0.5l0-0.5l0-0.5l0-0.4l0-0.4l0-0.4
	l0-0.4l0-0.4l0-0.4l0-0.4l0-0.4l0-0.4l0-0.4l0-0.4l0-0.4l0-0.4l0-0.4l0-0.4l0-0.3l0-0.3l0-0.3l0-0.3l0-0.3l0-0.3l0-0.3l0-0.3l0-0.2
	l0-0.2l0-0.2l0-0.2l0-0.2l0-0.2l0-0.2l0-0.2l0-0.2l0-0.2l0-0.2l0-0.2l0-0.2l0-0.2l0-0.2l0-0.2l0-0.2l0-0.2l0-0.2l0-0.2l0-0.2l0-0.2
	l0-0.2l0-0.2l0-0.2l0-0.2l0-0.2l0-0.2l0-0.2l0-0.2l0-0.2l0-0.2l0-0.2l0-0.2l0-0.2l0-0.2l0-0.2l0-0.2l0-0.2l0-0.2l0-0.2l0-0.2l0-0.2
	l0-0.2l0-0.2l0-0.2l0-0.2l0-0.2l0-0.2l0-0.2l0-0.2l0-0.2l0-0.2l0-0.2l0-0.2l0-0.2l0-0.2l0-0.2l0-0.2l0-0.2l0-0.2l0-0.2l0-0.2l0-0.2
	l0-0.2l0-0.2l0-0.3l0-0.2l0-0.2l0-0.2l0.1-0.9l0.1-1l0.2-1.2l0.2-1.4l0.2-1.6l0.2-1.7l0.2-1.9l0.3-2l0.3-2.2l0.3-2.3l0.3-2.5
	l0.3-2.6l0.3-2.7l0.3-2.8l0.4-2.9l0.4-3l0.4-3.1l0.4-3.2l0.4-3.3l0.4-3.3l0.4-3.4l0.4-3.4l0.4-3.5l0.4-3.5l0.4-3.6l0.4-3.6l0.4-3.6
	l0.4-3.6l0.4-3.7l0.4-3.7l0.4-3.7l0.4-3.7l0.4-3.6l0.4-3.6l0.4-3.6l0.4-3.6l0.4-3.5l0.4-3.5l0.4-3.4l0.4-3.4l0.4-3.3l0.4-3.2
	l0.4-3.2l0.4-3.1l0.4-3l0.3-2.9l0.3-2.8l0.3-2.7l0.3-2.6l0.3-2.4l0.3-2.3l0.3-2.2l0.2-2l0.2-1.9l0.2-1.7l0.2-1.6l0.2-1.4l0.1-1.3
	l0.1-1.1l0.1-0.9l0.1-0.7l0.1-0.5l0-0.3l0-0.1l0,0l0,0l0,0l0,0l0,0l0,0l0,0l0,0l0,0l0,0l0,0l0,0l0,0l0,0l0,0l0,0l0,0l0,0l0,0l0,0
	l0,0l0,0l0,0l0,0l0,0l0,0l0,0l0,0l0,0l0,0l0,0l0,0l0,0l0,0l0,0l0,0l0,0l0,0l0,0l0,0l0,0l0,0l0,0l0,0l0,0l0,0l0,0l0,0l0,0l0,0l0,0
	l0,0l0,0l0,0l0,0l0,0l0,0l0,0l0,0l0,0l0,0l0,0l0,0l0,0l1.8,0l1.8,0l1.8,0l1.8,0l1.8,0l1.8,0l1.8,0l1.8,0l1.8,0l1.8,0l1.8,0l1.8,0
	l1.8,0l1.8,0l1.8,0l1.8,0l1.8,0l1.8,0l1.8,0l1.8,0l1.8,0l1.8,0l1.8,0l1.8,0l1.8,0l1.8,0l1.8,0l1.8,0l1.8,0l1.8,0l1.8,0l1.8,0l1.8,0
	l1.8,0l1.8,0l1.8,0l1.8,0l1.8,0l1.8,0l1.8,0l1.8,0l1.8,0l1.8,0l1.8,0l1.8,0l1.8,0l1.8,0l1.8,0l1.8,0l1.8,0l1.8,0l1.8,0l1.8,0l1.8,0
	l1.8,0l1.8,0l1.8,0l1.8,0l1.8,0l1.8,0l1.8,0l1.8,0l1.8,0l1.8,0v0v0v0v0v0l0,0v0v0v0v0l0,0v0v0v0v0v0l0,0v0v0v0v0l0,0v0v0v0v0v0l0,0
	v0v0v0l0,0l0,0v0v0v0v0v0l0,0v0v0v0v0l0,0v0v0v0v0v0l0,0v0v0v0v0l0,0v0v0v0v0v0l0,0v0v0v0l0,0.4l0.1,0.6l0.1,0.7l0.1,0.8l0.2,1
	l0.2,1.1l0.2,1.2l0.3,1.4l0.3,1.5l0.3,1.6l0.3,1.7l0.4,1.8l0.4,1.9l0.4,2l0.4,2.1l0.5,2.2l0.5,2.3l0.5,2.4l0.5,2.4l0.5,2.5l0.6,2.6
	l0.6,2.6l0.6,2.7l0.6,2.7l0.6,2.8l0.6,2.8l0.6,2.9l0.6,2.9l0.6,2.9l0.6,3l0.7,3l0.7,3l0.7,3l0.7,3l0.7,3l0.7,3l0.7,3l0.7,3l0.7,2.9
	l0.6,2.9l0.6,2.9l0.6,2.9l0.6,2.8l0.6,2.8l0.6,2.7l0.6,2.7l0.6,2.6l0.6,2.6l0.5,2.5l0.5,2.4l0.5,2.3l0.5,2.2l0.5,2.2l0.4,2.1l0.4,2
	l0.4,1.9l0.4,1.8l0.3,1.6l0.3,1.5l0.3,1.4l0.2,1.3l0.2,1.1l0.2,1l0.1,0.9l0,0.2l0,0.2l0,0.2l0,0.2l0,0.2l0,0.2l0,0.2l0,0.2l0,0.2
	l0,0.2l0,0.2l0,0.2l0,0.2l0,0.2l0,0.2l0,0.1l0,0.1l0,0.1l0,0.1l0,0.1l0,0.1l0,0.1l0,0.1l0,0.1l0,0.1l0,0.1l0,0.1l0,0.1l0,0.1l0,0.1
	l0,0.1l0,0.1l0,0.1l0,0.1l0,0.1l0,0.1l0,0.1l0,0.1l0,0.1l0,0.1l0,0.1l0,0.1l0,0.1l0,0.1l0,0.1l0,0.1v0.1l0,0.1l0,0.1l0,0.1l0,0.1
	l0,0.1l0,0.1l0,0.1l0,0.1l0,0.1l0,0.1l0,0.1l0,0.1l0,0.1l0,0.1l0,0.1l0,0.1l0,0.1l0,0.4l0,0.4l0,0.4l-0.1,0.4l-0.1,0.4l-0.1,0.4
	l-0.1,0.4l-0.1,0.4l-0.1,0.4l-0.1,0.4l-0.1,0.4l-0.1,0.4l-0.1,0.4l-0.1,0.4l-0.1,0.4l-0.1,0.4l-0.1,0.4l-0.1,0.4l-0.1,0.4l-0.1,0.4
	l-0.1,0.4l-0.1,0.4l-0.1,0.4l-0.1,0.4l-0.1,0.4l-0.1,0.4l-0.1,0.4l-0.1,0.4l-0.1,0.4l-0.1,0.4l-0.1,0.4l-0.1,0.4l-0.1,0.4l-0.1,0.4
	l-0.1,0.4l-0.1,0.4l-0.1,0.4l-0.1,0.4l-0.1,0.4l-0.1,0.4l-0.1,0.4l-0.1,0.4l-0.1,0.4l-0.1,0.4l-0.1,0.3l-0.1,0.4l-0.1,0.3l-0.1,0.3
	l-0.1,0.3l-0.1,0.3l-0.1,0.3l-0.1,0.3l-0.1,0.3l-0.1,0.3l-0.1,0.3l-0.1,0.3l-0.1,0.3l-0.1,0.3l-0.1,0.3l0,0.3l0,0.3l0,0.3l0,0.3
	L202.6,171.8"/>
<path class="st1" d="M234.2,36c12.5,0,19-9.5,19-20.2c0-8.3-4.7-15.8-15.3-15.8h-85.4h-24.7l0,0C120,0.2,111.7,3,106,7.9L7.2,225.4
	c-2.5,5-4.3,10.4-4.3,15.1c0,9.3,6.5,15.5,15.8,15.5c8.3,0,14.4-5,17.6-13.3l27.3-65.1h88.1l12.2,62.6c1.8,10.4,6.8,15.8,16.5,15.8
	c10.1,0,17.3-7.2,17.3-16.5c0-3.6-1.4-10.1-2.5-14.7l-16.4-76.2h43.4c10.8,0,18.3-8.3,18.3-17.6c0-8.3-5.8-13.7-14.7-13.7h-53.7
	L154.6,36h1.3H234.2z M76.6,147.8L123.7,36h0.7L146,147.8H76.6z"/>
</svg>
